<svg class="ico-link-primary" width="16" height="8" viewBox="0 0 16 8" fill="none" xmlns="http://www.w3.org/2000/svg">
<path d="M4 8C2.89333 8 1.95013 7.60987 1.1704 6.8296C0.390133 6.04987 0 5.10667 0 4C0 2.89333 0.390133 1.94987 1.1704 1.1696C1.95013 0.389867 2.89333 0 4 0H6.4C6.62667 0 6.8168 0.0765335 6.9704 0.2296C7.12347 0.3832 7.2 0.573333 7.2 0.8C7.2 1.02667 7.12347 1.21653 6.9704 1.3696C6.8168 1.5232 6.62667 1.6 6.4 1.6H4C3.33333 1.6 2.76667 1.83333 2.3 2.3C1.83333 2.76667 1.6 3.33333 1.6 4C1.6 4.66667 1.83333 5.23333 2.3 5.7C2.76667 6.16667 3.33333 6.4 4 6.4H6.4C6.62667 6.4 6.8168 6.47653 6.9704 6.6296C7.12347 6.7832 7.2 6.97333 7.2 7.2C7.2 7.42667 7.12347 7.61653 6.9704 7.7696C6.8168 7.9232 6.62667 8 6.4 8H4ZM5.6 4.8C5.37333 4.8 5.18347 4.7232 5.0304 4.5696C4.8768 4.41653 4.8 4.22667 4.8 4C4.8 3.77333 4.8768 3.5832 5.0304 3.4296C5.18347 3.27653 5.37333 3.2 5.6 3.2H10.4C10.6267 3.2 10.8168 3.27653 10.9704 3.4296C11.1235 3.5832 11.2 3.77333 11.2 4C11.2 4.22667 11.1235 4.41653 10.9704 4.5696C10.8168 4.7232 10.6267 4.8 10.4 4.8H5.6ZM9.6 8C9.37333 8 9.18347 7.9232 9.0304 7.7696C8.8768 7.61653 8.8 7.42667 8.8 7.2C8.8 6.97333 8.8768 6.7832 9.0304 6.6296C9.18347 6.47653 9.37333 6.4 9.6 6.4H12C12.6667 6.4 13.2333 6.16667 13.7 5.7C14.1667 5.23333 14.4 4.66667 14.4 4C14.4 3.33333 14.1667 2.76667 13.7 2.3C13.2333 1.83333 12.6667 1.6 12 1.6H9.6C9.37333 1.6 9.18347 1.5232 9.0304 1.3696C8.8768 1.21653 8.8 1.02667 8.8 0.8C8.8 0.573333 8.8768 0.3832 9.0304 0.2296C9.18347 0.0765335 9.37333 0 9.6 0H12C13.1067 0 14.0501 0.389867 14.8304 1.1696C15.6101 1.94987 16 2.89333 16 4C16 5.10667 15.6101 6.04987 14.8304 6.8296C14.0501 7.60987 13.1067 8 12 8H9.6Z" fill="#5D7376"/>
</svg>

