<svg width="24" height="24" viewBox="0 0 24 24" fill="none" xmlns="http://www.w3.org/2000/svg">
    <g clip-path="url(#clip0_641_812)">
        <g clip-path="url(#clip1_641_812)">
            <rect y="24" width="24" height="24" rx="12" transform="rotate(-90 0 24)" fill="#0EC5D7" />
            <path d="M16 8.66667L16 15.3333C16 15.5101 15.9298 15.6797 15.8047 15.8047C15.6797 15.9298 15.5101 16 15.3333 16C15.1565 16 14.987 15.9298 14.8619 15.8047C14.7369 15.6797 14.6667 15.5101 14.6667 15.3333L14.6667 9.33333L8.66667 9.33333C8.48986 9.33333 8.32029 9.2631 8.19526 9.13807C8.07024 9.01305 8 8.84348 8 8.66667C8 8.48986 8.07024 8.32029 8.19526 8.19526C8.32029 8.07024 8.48986 8 8.66667 8L15.3333 8C15.5101 8 15.6797 8.07024 15.8047 8.19526C15.9298 8.32029 16 8.48985 16 8.66667Z" fill="#001F22" />
            <path d="M16 8.66722C16.0001 8.75487 15.9829 8.84167 15.9493 8.92264C15.9158 9.00361 15.8665 9.07715 15.8045 9.13904L9.13097 15.8127C9.0051 15.9342 8.83653 16.0015 8.66155 16C8.48657 15.9985 8.31919 15.9283 8.19546 15.8045C8.07173 15.6808 8.00155 15.5134 8.00003 15.3384C7.9985 15.1635 8.06577 14.9949 8.18733 14.869L14.8608 8.19539C14.9542 8.10209 15.0731 8.03855 15.2025 8.01282C15.3319 7.98708 15.4661 8.00029 15.588 8.05079C15.7099 8.10129 15.8142 8.18681 15.8875 8.29653C15.9608 8.40625 16 8.53525 16 8.66722Z" fill="#001F22" />
        </g>
    </g>
    <defs>
        <clipPath id="clip0_641_812">
            <rect width="24" height="24" fill="white" />
        </clipPath>
        <clipPath id="clip1_641_812">
            <rect y="24" width="24" height="24" rx="12" transform="rotate(-90 0 24)" fill="white" />
        </clipPath>
    </defs>
</svg>