<svg class="ico-link-black" width="25" height="25" viewBox="0 0 25 25" fill="none" xmlns="http://www.w3.org/2000/svg">
<rect x="0.75" y="24.5" width="24" height="24" rx="12" transform="rotate(-90 0.75 24.5)" fill="#001F22"/>
<path d="M16.75 9.16667L16.75 15.8333C16.75 16.0101 16.6798 16.1797 16.5547 16.3047C16.4297 16.4298 16.2601 16.5 16.0833 16.5C15.9065 16.5 15.737 16.4298 15.6119 16.3047C15.4869 16.1797 15.4167 16.0101 15.4167 15.8333L15.4167 9.83333L9.41667 9.83333C9.23986 9.83333 9.07029 9.7631 8.94526 9.63807C8.82024 9.51305 8.75 9.34348 8.75 9.16667C8.75 8.98986 8.82024 8.82029 8.94526 8.69526C9.07029 8.57024 9.23986 8.5 9.41667 8.5L16.0833 8.5C16.2601 8.5 16.4297 8.57024 16.5547 8.69526C16.6798 8.82029 16.75 8.98985 16.75 9.16667Z" fill="white"/>
<path d="M16.75 9.16722C16.7501 9.25487 16.7329 9.34167 16.6993 9.42264C16.6658 9.50361 16.6165 9.57715 16.5545 9.63904L9.88097 16.3127C9.7551 16.4342 9.58653 16.5015 9.41155 16.5C9.23657 16.4985 9.06919 16.4283 8.94546 16.3045C8.82173 16.1808 8.75155 16.0134 8.75003 15.8384C8.7485 15.6635 8.81577 15.4949 8.93733 15.369L15.6108 8.69539C15.7042 8.60209 15.8231 8.53855 15.9525 8.51282C16.0819 8.48708 16.2161 8.50029 16.338 8.55079C16.4599 8.60129 16.5642 8.68681 16.6375 8.79653C16.7108 8.90625 16.75 9.03525 16.75 9.16722Z" fill="white"/>
</svg>
