<svg width="24" height="25" viewBox="0 0 24 25" fill="none" xmlns="http://www.w3.org/2000/svg">
<rect y="24.5" width="24" height="24" rx="12" transform="rotate(-90 0 24.5)" fill="#0EC5D7"/>
<path d="M16 9.16667L16 15.8333C16 16.0101 15.9298 16.1797 15.8047 16.3047C15.6797 16.4298 15.5101 16.5 15.3333 16.5C15.1565 16.5 14.987 16.4298 14.8619 16.3047C14.7369 16.1797 14.6667 16.0101 14.6667 15.8333L14.6667 9.83333L8.66667 9.83333C8.48986 9.83333 8.32029 9.7631 8.19526 9.63807C8.07024 9.51305 8 9.34348 8 9.16667C8 8.98986 8.07024 8.82029 8.19526 8.69526C8.32029 8.57024 8.48986 8.5 8.66667 8.5L15.3333 8.5C15.5101 8.5 15.6797 8.57024 15.8047 8.69526C15.9298 8.82029 16 8.98985 16 9.16667Z" fill="#001F22"/>
<path d="M16 9.16722C16.0001 9.25487 15.9829 9.34167 15.9493 9.42264C15.9158 9.50361 15.8665 9.57715 15.8045 9.63904L9.13097 16.3127C9.0051 16.4342 8.83653 16.5015 8.66155 16.5C8.48657 16.4985 8.31919 16.4283 8.19546 16.3045C8.07173 16.1808 8.00155 16.0134 8.00003 15.8384C7.9985 15.6635 8.06577 15.4949 8.18733 15.369L14.8608 8.69539C14.9542 8.60209 15.0731 8.53855 15.2025 8.51282C15.3319 8.48708 15.4661 8.50029 15.588 8.55079C15.7099 8.60129 15.8142 8.68681 15.8875 8.79653C15.9608 8.90625 16 9.03525 16 9.16722Z" fill="#001F22"/>
</svg>
