<svg class="logo-white" width="156" height="26" viewBox="0 0 156 26" fill="none" xmlns="http://www.w3.org/2000/svg">
<path d="M3 0V25.1936V0Z" fill="white"/>
<path d="M3 0V25.1936" stroke="white" stroke-width="4.13383"/>
<path d="M10.6802 -0.00012207V12.549V-0.00012207Z" fill="white"/>
<path d="M10.6802 -0.00012207V12.549" stroke="white" stroke-width="4.12599"/>
<path d="M16.5303 0.000610352V4.26311H23.8606L29.1781 15.0612H33.966L26.3618 0.000610352H16.5303Z" fill="white"/>
<path d="M18.71 8.88245V25.6935V8.88245Z" fill="white"/>
<path d="M18.71 8.88245V25.6935" stroke="white" stroke-width="4.77551"/>
<path d="M52.6641 5.37417H54.9932L58.4226 15.1765L61.852 5.37417H64.1811L59.3579 18.7251H57.4873L52.6641 5.37417ZM51.4079 5.37417H53.7278L54.1496 14.9289V18.7251H51.4079V5.37417ZM63.1174 5.37417H65.4465V18.7251H62.6956V14.9289L63.1174 5.37417ZM73.0481 16.4877V12.068C73.0481 11.7501 72.9962 11.4781 72.8922 11.2519C72.7883 11.0196 72.6263 10.8392 72.4062 10.7109C72.1923 10.5825 71.9141 10.5183 71.5718 10.5183C71.2784 10.5183 71.0247 10.5703 70.8107 10.6742C70.5968 10.772 70.4317 10.9157 70.3156 11.1052C70.1994 11.2886 70.1414 11.5056 70.1414 11.7562H67.5005C67.5005 11.3344 67.5983 10.934 67.7939 10.555C67.9896 10.176 68.2738 9.84282 68.6467 9.5555C69.0196 9.26208 69.4628 9.03284 69.9763 8.86778C70.4959 8.70273 71.0767 8.6202 71.7185 8.6202C72.4888 8.6202 73.1734 8.74858 73.7725 9.00533C74.3716 9.26208 74.8423 9.6472 75.1846 10.1607C75.5331 10.6742 75.7073 11.3161 75.7073 12.0863V16.3318C75.7073 16.8759 75.7409 17.3221 75.8082 17.6706C75.8754 18.0129 75.9732 18.3125 76.1016 18.5692V18.7251H73.4332C73.3049 18.4561 73.2071 18.1199 73.1398 17.7164C73.0787 17.3069 73.0481 16.8973 73.0481 16.4877ZM73.3966 12.6823L73.4149 14.177H71.9386C71.5901 14.177 71.2876 14.2167 71.0308 14.2962C70.7741 14.3757 70.5632 14.4887 70.3981 14.6355C70.233 14.7761 70.1108 14.9411 70.0313 15.1306C69.958 15.3201 69.9213 15.528 69.9213 15.7541C69.9213 15.9803 69.9732 16.1851 70.0772 16.3685C70.1811 16.5458 70.3309 16.6864 70.5265 16.7903C70.7221 16.8881 70.9513 16.937 71.2142 16.937C71.6115 16.937 71.9569 16.8576 72.2504 16.6986C72.5438 16.5397 72.77 16.3441 72.9289 16.1118C73.094 15.8795 73.1795 15.6594 73.1857 15.4516L73.8825 16.5702C73.7847 16.8209 73.6502 17.0807 73.4791 17.3497C73.314 17.6186 73.1031 17.8723 72.8464 18.1107C72.5896 18.343 72.2809 18.5356 71.9203 18.6884C71.5596 18.8351 71.1317 18.9085 70.6365 18.9085C70.0069 18.9085 69.4353 18.7832 68.9218 18.5325C68.4144 18.2758 68.0109 17.9243 67.7114 17.478C67.418 17.0257 67.2713 16.5122 67.2713 15.9375C67.2713 15.4179 67.3691 14.9564 67.5647 14.5529C67.7603 14.1495 68.0476 13.8102 68.4266 13.5351C68.8118 13.2539 69.2916 13.043 69.8663 12.9024C70.4409 12.7557 71.1072 12.6823 71.8652 12.6823H73.3966ZM80.3288 10.9218V18.7251H77.6879V8.8036H80.1637L80.3288 10.9218ZM79.9436 13.4159H79.2284C79.2284 12.6823 79.3232 12.0221 79.5127 11.4353C79.7022 10.8423 79.9681 10.338 80.3104 9.92229C80.6528 9.50048 81.0593 9.17955 81.53 8.95948C82.0068 8.7333 82.5386 8.6202 83.1255 8.6202C83.5901 8.6202 84.0149 8.68745 84.4001 8.82193C84.7852 8.95642 85.1153 9.17038 85.3904 9.46381C85.6716 9.75723 85.8855 10.1454 86.0323 10.6283C86.1851 11.1113 86.2615 11.7012 86.2615 12.3981V18.7251H83.6023V12.3889C83.6023 11.9488 83.5412 11.6064 83.4189 11.3619C83.2967 11.1174 83.1163 10.9462 82.8779 10.8484C82.6456 10.7445 82.3583 10.6925 82.016 10.6925C81.6614 10.6925 81.3527 10.7628 81.0898 10.9034C80.8331 11.044 80.6191 11.2397 80.448 11.4903C80.2829 11.7348 80.1576 12.0221 80.072 12.3522C79.9864 12.6823 79.9436 13.0369 79.9436 13.4159ZM94.5508 8.8036H96.9441V18.395C96.9441 19.2997 96.7423 20.0669 96.3389 20.6966C95.9415 21.3323 95.3852 21.8122 94.67 22.1362C93.9548 22.4663 93.1234 22.6313 92.1759 22.6313C91.7602 22.6313 91.3201 22.5763 90.8555 22.4663C90.397 22.3563 89.9568 22.1851 89.535 21.9528C89.1194 21.7205 88.7709 21.4271 88.4897 21.0725L89.6542 19.5137C89.9599 19.8682 90.3145 20.1433 90.7179 20.3389C91.1214 20.5407 91.5676 20.6415 92.0567 20.6415C92.5335 20.6415 92.937 20.5529 93.2671 20.3756C93.5972 20.2045 93.8509 19.9508 94.0281 19.6145C94.2054 19.2844 94.2941 18.884 94.2941 18.4133V11.096L94.5508 8.8036ZM87.8753 13.8836V13.691C87.8753 12.933 87.967 12.2453 88.1504 11.6278C88.3399 11.0043 88.6059 10.4694 88.9482 10.0232C89.2966 9.5769 89.7184 9.23151 90.2136 8.98699C90.7088 8.74246 91.2681 8.6202 91.8916 8.6202C92.5518 8.6202 93.1051 8.74246 93.5513 8.98699C93.9976 9.23151 94.3644 9.57995 94.6517 10.0323C94.939 10.4786 95.1621 11.0074 95.3211 11.6187C95.4861 12.2239 95.6145 12.8871 95.7062 13.6085V14.0303C95.6145 14.721 95.4769 15.3629 95.2935 15.9559C95.1102 16.5488 94.8687 17.0685 94.5692 17.5147C94.2696 17.9549 93.8967 18.2972 93.4505 18.5417C93.0103 18.7862 92.4846 18.9085 91.8733 18.9085C91.262 18.9085 90.7088 18.7832 90.2136 18.5325C89.7245 18.2819 89.3058 17.9304 88.9574 17.478C88.6089 17.0257 88.3399 16.4938 88.1504 15.8825C87.967 15.2712 87.8753 14.6049 87.8753 13.8836ZM90.5162 13.691V13.8836C90.5162 14.2931 90.5559 14.6752 90.6354 15.0298C90.7149 15.3843 90.8371 15.6991 91.0022 15.9742C91.1733 16.2432 91.3842 16.4541 91.6349 16.6069C91.8916 16.7536 92.1942 16.827 92.5427 16.827C93.0256 16.827 93.4199 16.7261 93.7255 16.5244C94.0312 16.3166 94.2604 16.0323 94.4133 15.6716C94.5661 15.311 94.6547 14.8953 94.6792 14.4246V13.2233C94.667 12.8382 94.615 12.4928 94.5233 12.1872C94.4316 11.8754 94.3032 11.6095 94.1382 11.3894C93.9731 11.1694 93.7592 10.9982 93.4963 10.8759C93.2334 10.7537 92.9217 10.6925 92.561 10.6925C92.2126 10.6925 91.91 10.772 91.6532 10.9309C91.4026 11.0838 91.1917 11.2947 91.0205 11.5636C90.8555 11.8326 90.7301 12.1505 90.6446 12.5173C90.559 12.878 90.5162 13.2692 90.5162 13.691ZM103.097 16.8453C103.421 16.8453 103.708 16.7842 103.959 16.6619C104.209 16.5336 104.405 16.3563 104.546 16.1301C104.692 15.8978 104.769 15.6258 104.775 15.314H107.26C107.254 16.0109 107.067 16.6314 106.701 17.1754C106.334 17.7134 105.842 18.1382 105.224 18.45C104.607 18.7557 103.916 18.9085 103.152 18.9085C102.382 18.9085 101.709 18.7801 101.135 18.5234C100.566 18.2666 100.092 17.9121 99.7133 17.4597C99.3343 17.0012 99.05 16.4694 98.8605 15.8642C98.671 15.2529 98.5763 14.5988 98.5763 13.9019V13.636C98.5763 12.933 98.671 12.2789 98.8605 11.6737C99.05 11.0624 99.3343 10.5305 99.7133 10.0782C100.092 9.61969 100.566 9.26208 101.135 9.00533C101.703 8.74858 102.369 8.6202 103.134 8.6202C103.947 8.6202 104.659 8.77609 105.27 9.08785C105.887 9.39962 106.37 9.84587 106.719 10.4266C107.073 11.0012 107.254 11.6828 107.26 12.4714H104.775C104.769 12.1413 104.698 11.8418 104.564 11.5728C104.436 11.3038 104.246 11.0899 103.995 10.9309C103.751 10.7659 103.448 10.6834 103.088 10.6834C102.703 10.6834 102.388 10.7659 102.143 10.9309C101.899 11.0899 101.709 11.31 101.575 11.5912C101.44 11.8662 101.345 12.1811 101.29 12.5356C101.242 12.8841 101.217 13.2508 101.217 13.636V13.9019C101.217 14.287 101.242 14.6569 101.29 15.0114C101.339 15.366 101.431 15.6808 101.566 15.9559C101.706 16.231 101.899 16.448 102.143 16.6069C102.388 16.7659 102.706 16.8453 103.097 16.8453ZM108.369 13.8652V13.6727C108.369 12.9452 108.473 12.2758 108.681 11.6645C108.889 11.0471 109.192 10.5122 109.589 10.0598C109.986 9.60746 110.475 9.25596 111.056 9.00533C111.637 8.74858 112.303 8.6202 113.055 8.6202C113.807 8.6202 114.476 8.74858 115.063 9.00533C115.65 9.25596 116.142 9.60746 116.54 10.0598C116.943 10.5122 117.249 11.0471 117.456 11.6645C117.664 12.2758 117.768 12.9452 117.768 13.6727V13.8652C117.768 14.5866 117.664 15.2559 117.456 15.8734C117.249 16.4847 116.943 17.0196 116.54 17.478C116.142 17.9304 115.653 18.2819 115.072 18.5325C114.492 18.7832 113.825 18.9085 113.073 18.9085C112.321 18.9085 111.652 18.7832 111.065 18.5325C110.485 18.2819 109.992 17.9304 109.589 17.478C109.192 17.0196 108.889 16.4847 108.681 15.8734C108.473 15.2559 108.369 14.5866 108.369 13.8652ZM111.01 13.6727V13.8652C111.01 14.2809 111.047 14.6691 111.12 15.0298C111.194 15.3904 111.31 15.7083 111.469 15.9834C111.634 16.2524 111.848 16.4633 112.111 16.6161C112.373 16.7689 112.694 16.8453 113.073 16.8453C113.44 16.8453 113.755 16.7689 114.018 16.6161C114.281 16.4633 114.492 16.2524 114.651 15.9834C114.81 15.7083 114.926 15.3904 114.999 15.0298C115.078 14.6691 115.118 14.2809 115.118 13.8652V13.6727C115.118 13.2692 115.078 12.8902 114.999 12.5356C114.926 12.175 114.806 11.8571 114.641 11.582C114.482 11.3008 114.272 11.0807 114.009 10.9218C113.746 10.7628 113.428 10.6834 113.055 10.6834C112.682 10.6834 112.364 10.7628 112.101 10.9218C111.845 11.0807 111.634 11.3008 111.469 11.582C111.31 11.8571 111.194 12.175 111.12 12.5356C111.047 12.8902 111.01 13.2692 111.01 13.6727ZM125.251 16.5611V4.6406H127.91V18.7251H125.517L125.251 16.5611ZM118.979 13.8836V13.691C118.979 12.933 119.064 12.2453 119.235 11.6278C119.407 11.0043 119.657 10.4694 119.987 10.0232C120.317 9.5769 120.724 9.23151 121.207 8.98699C121.69 8.74246 122.24 8.6202 122.857 8.6202C123.438 8.6202 123.945 8.74246 124.38 8.98699C124.82 9.23151 125.193 9.57995 125.498 10.0323C125.81 10.4786 126.061 11.0074 126.25 11.6187C126.44 12.2239 126.577 12.8871 126.663 13.6085V14.0303C126.577 14.721 126.44 15.3629 126.25 15.9559C126.061 16.5488 125.81 17.0685 125.498 17.5147C125.193 17.9549 124.82 18.2972 124.38 18.5417C123.939 18.7862 123.426 18.9085 122.839 18.9085C122.222 18.9085 121.671 18.7832 121.188 18.5325C120.712 18.2819 120.308 17.9304 119.978 17.478C119.654 17.0257 119.407 16.4938 119.235 15.8825C119.064 15.2712 118.979 14.6049 118.979 13.8836ZM121.619 13.691V13.8836C121.619 14.2931 121.65 14.6752 121.711 15.0298C121.778 15.3843 121.885 15.6991 122.032 15.9742C122.185 16.2432 122.381 16.4541 122.619 16.6069C122.863 16.7536 123.16 16.827 123.508 16.827C123.961 16.827 124.334 16.7261 124.627 16.5244C124.921 16.3166 125.144 16.0323 125.296 15.6716C125.455 15.311 125.547 14.8953 125.572 14.4246V13.2233C125.553 12.8382 125.498 12.4928 125.406 12.1872C125.321 11.8754 125.193 11.6095 125.021 11.3894C124.856 11.1694 124.648 10.9982 124.398 10.8759C124.153 10.7537 123.863 10.6925 123.527 10.6925C123.184 10.6925 122.891 10.772 122.646 10.9309C122.402 11.0838 122.203 11.2947 122.05 11.5636C121.904 11.8326 121.794 12.1505 121.72 12.5173C121.653 12.878 121.619 13.2692 121.619 13.691ZM132.761 8.8036V18.7251H130.111V8.8036H132.761ZM129.945 6.21777C129.945 5.83265 130.08 5.51477 130.349 5.26413C130.618 5.0135 130.979 4.88818 131.431 4.88818C131.877 4.88818 132.235 5.0135 132.504 5.26413C132.779 5.51477 132.916 5.83265 132.916 6.21777C132.916 6.60289 132.779 6.92077 132.504 7.17141C132.235 7.42204 131.877 7.54736 131.431 7.54736C130.979 7.54736 130.618 7.42204 130.349 7.17141C130.08 6.92077 129.945 6.60289 129.945 6.21777ZM137.529 10.9218V18.7251H134.888V8.8036H137.364L137.529 10.9218ZM137.144 13.4159H136.428C136.428 12.6823 136.523 12.0221 136.713 11.4353C136.902 10.8423 137.168 10.338 137.51 9.92229C137.853 9.50048 138.259 9.17955 138.73 8.95948C139.207 8.7333 139.739 8.6202 140.325 8.6202C140.79 8.6202 141.215 8.68745 141.6 8.82193C141.985 8.95642 142.315 9.17038 142.59 9.46381C142.872 9.75723 143.085 10.1454 143.232 10.6283C143.385 11.1113 143.461 11.7012 143.461 12.3981V18.7251H140.802V12.3889C140.802 11.9488 140.741 11.6064 140.619 11.3619C140.497 11.1174 140.316 10.9462 140.078 10.8484C139.846 10.7445 139.558 10.6925 139.216 10.6925C138.861 10.6925 138.553 10.7628 138.29 10.9034C138.033 11.044 137.819 11.2397 137.648 11.4903C137.483 11.7348 137.358 12.0221 137.272 12.3522C137.186 12.6823 137.144 13.0369 137.144 13.4159ZM151.751 8.8036H154.144V18.395C154.144 19.2997 153.942 20.0669 153.539 20.6966C153.141 21.3323 152.585 21.8122 151.87 22.1362C151.155 22.4663 150.323 22.6313 149.376 22.6313C148.96 22.6313 148.52 22.5763 148.055 22.4663C147.597 22.3563 147.157 22.1851 146.735 21.9528C146.319 21.7205 145.971 21.4271 145.69 21.0725L146.854 19.5137C147.16 19.8682 147.514 20.1433 147.918 20.3389C148.321 20.5407 148.768 20.6415 149.257 20.6415C149.733 20.6415 150.137 20.5529 150.467 20.3756C150.797 20.2045 151.051 19.9508 151.228 19.6145C151.405 19.2844 151.494 18.884 151.494 18.4133V11.096L151.751 8.8036ZM145.075 13.8836V13.691C145.075 12.933 145.167 12.2453 145.35 11.6278C145.54 11.0043 145.806 10.4694 146.148 10.0232C146.497 9.5769 146.918 9.23151 147.414 8.98699C147.909 8.74246 148.468 8.6202 149.092 8.6202C149.752 8.6202 150.305 8.74246 150.751 8.98699C151.198 9.23151 151.564 9.57995 151.852 10.0323C152.139 10.4786 152.362 11.0074 152.521 11.6187C152.686 12.2239 152.814 12.8871 152.906 13.6085V14.0303C152.814 14.721 152.677 15.3629 152.493 15.9559C152.31 16.5488 152.069 17.0685 151.769 17.5147C151.47 17.9549 151.097 18.2972 150.65 18.5417C150.21 18.7862 149.685 18.9085 149.073 18.9085C148.462 18.9085 147.909 18.7832 147.414 18.5325C146.924 18.2819 146.506 17.9304 146.157 17.478C145.809 17.0257 145.54 16.4938 145.35 15.8825C145.167 15.2712 145.075 14.6049 145.075 13.8836ZM147.716 13.691V13.8836C147.716 14.2931 147.756 14.6752 147.835 15.0298C147.915 15.3843 148.037 15.6991 148.202 15.9742C148.373 16.2432 148.584 16.4541 148.835 16.6069C149.092 16.7536 149.394 16.827 149.743 16.827C150.226 16.827 150.62 16.7261 150.925 16.5244C151.231 16.3166 151.46 16.0323 151.613 15.6716C151.766 15.311 151.855 14.8953 151.879 14.4246V13.2233C151.867 12.8382 151.815 12.4928 151.723 12.1872C151.632 11.8754 151.503 11.6095 151.338 11.3894C151.173 11.1694 150.959 10.9982 150.696 10.8759C150.433 10.7537 150.122 10.6925 149.761 10.6925C149.413 10.6925 149.11 10.772 148.853 10.9309C148.603 11.0838 148.392 11.2947 148.22 11.5636C148.055 11.8326 147.93 12.1505 147.845 12.5173C147.759 12.878 147.716 13.2692 147.716 13.691Z" fill="white"/>
</svg>
